<svg width="241" height="101" viewBox="0 0 241 101" fill="none" xmlns="http://www.w3.org/2000/svg">
  <style>
    path {
    fill: white;
    }
  </style>
<path d="M39.4137 75.7C26.4137 75.7 16.9137 65.6 16.9137 50V49.2C16.9137 33.8 25.2137 23.5 39.2137 23.5C53.2137 23.5 61.4137 34.4 61.4137 49.1V49.9C61.4137 65.4 52.9137 75.7 39.4137 75.7ZM39.2137 86.4C60.9137 86.4 75.2137 70.7 75.2137 49.8V49C75.2137 28 60.5137 12.9 39.2137 12.9C18.0137 12.9 3.01367 28.4 3.01367 49.3V50.1C3.01367 70.7 17.3137 86.4 39.2137 86.4Z"/>
<path d="M80.059 83.4C80.059 84.5046 80.9544 85.4 82.059 85.4H90.159C91.2636 85.4 92.159 84.5046 92.159 83.4V58.2C92.159 47.8096 97.7669 44.1661 107.178 43.6608C108.274 43.602 109.159 42.716 109.159 41.6188V34.3229C109.159 33.2094 108.246 32.3008 107.136 32.3951C99.5913 33.0361 95.1971 36.8238 92.159 42.9V35.1C92.159 33.9954 91.2636 33.1 90.159 33.1H82.059C80.9544 33.1 80.059 33.9954 80.059 35.1V83.4Z"/>
<path d="M115.105 83.4C115.105 84.5046 116.001 85.4 117.105 85.4H125.205C126.31 85.4 127.205 84.5046 127.205 83.4V35.1C127.205 33.9954 126.31 33.1 125.205 33.1H117.105C116.001 33.1 115.105 33.9954 115.105 35.1V83.4ZM121.005 24.5C125.005 24.5 128.205 21.5 128.205 17.6C128.205 13.6 125.005 10.6 121.005 10.6C117.005 10.6 113.805 13.6 113.805 17.6C113.805 21.5 117.005 24.5 121.005 24.5Z"/>
<path d="M159.354 77C150.154 77 144.854 70.3 144.854 59.6V58.8C144.854 48 150.354 41.5 159.354 41.5C168.354 41.5 173.754 48.1 173.754 58.9V59.6C173.754 70.3 168.354 77 159.354 77ZM159.254 86.4C174.654 86.4 186.154 75.8 186.154 59.5V58.7C186.154 42.7 174.654 32 159.354 32C143.954 32 132.454 42.8 132.454 59V59.8C132.454 75.7 143.854 86.4 159.254 86.4Z"/>
<path d="M191.086 83.4C191.086 84.5046 191.982 85.4 193.086 85.4H201.186C202.291 85.4 203.186 84.5046 203.186 83.4V54.6C203.186 46.3 208.686 42.1 215.486 42.1C222.686 42.1 225.886 45.7 225.886 53.6V83.4C225.886 84.5046 226.782 85.4 227.886 85.4H235.986C237.091 85.4 237.986 84.5046 237.986 83.4V52.5C237.986 38.1 230.586 32 220.086 32C211.486 32 205.686 36.3 203.186 41.4V35.1C203.186 33.9954 202.291 33.1 201.186 33.1H193.086C191.982 33.1 191.086 33.9954 191.086 35.1V83.4Z"/>
</svg>
