<svg width="176" height="63" viewBox="0 0 176 63" xmlns="http://www.w3.org/2000/svg">
  <style>
    path {
    fill: #202328;
    }
    @media (prefers-color-scheme: dark) {
    path {
    fill: white;
    }
    }
  </style>
  <path fill-rule="evenodd" clip-rule="evenodd" d="M73.65 31.9C73.65 42.6 78.95 49.3 88.15 49.3C97.15 49.3 102.55 42.6 102.55 31.9V31.2C102.55 20.4 97.15 13.8 88.15 13.8C79.15 13.8 73.65 20.3 73.65 31.1V31.9ZM114.615 36.5C112.618 50.1081 101.915 58.7 88.05 58.7C74.1179 58.7 63.4595 49.9425 61.5543 36.5H58.4147C56.4184 50.1081 45.7148 58.7 31.85 58.7C16.45 58.7 5.04999 48 5.04999 32.1V31.3C5.04999 15.1 16.55 4.29999 31.95 4.29999C45.7664 4.29999 56.484 13.0255 58.4326 26.5H61.6035C63.6456 13.0018 74.3267 4.29999 88.15 4.29999C101.966 4.29999 112.684 13.0255 114.633 26.5H117.603C119.646 13.0018 130.327 4.29999 144.15 4.29999C159.45 4.29999 170.95 15 170.95 31V31.8C170.95 48.1 159.45 58.7 144.05 58.7C130.118 58.7 119.46 49.9425 117.554 36.5H114.615ZM17.45 31.9C17.45 42.6 22.75 49.3 31.95 49.3C40.95 49.3 46.35 42.6 46.35 31.9V31.2C46.35 20.4 40.95 13.8 31.95 13.8C22.95 13.8 17.45 20.3 17.45 31.1V31.9ZM144.15 49.3C134.95 49.3 129.65 42.6 129.65 31.9V31.1C129.65 20.3 135.15 13.8 144.15 13.8C153.15 13.8 158.55 20.4 158.55 31.2V31.9C158.55 42.6 153.15 49.3 144.15 49.3Z"/>
</svg>
